<svg xmlns="http://www.w3.org/2000/svg" viewBox="0 0 513.421 513.421"><circle cx="256.71" cy="256.137" r="256" fill="#cdd6e0"/><circle cx="256.71" cy="256.137" r="184.533" fill="#acb3ba"/><path d="M264.177.137c-5.333 0-8.533 5.333-8.533 9.6v97.067a9.56 9.56 0 0 1-9.6 9.6 9.56 9.56 0 0 1-9.6-9.6V9.737c0-5.333-3.2-9.6-8.533-9.6-5.333-1.067-10.667 4.267-10.667 9.6v97.067a9.56 9.56 0 0 1-9.6 9.6 9.56 9.56 0 0 1-9.6-9.6V9.737c0-5.333-3.2-9.6-8.533-9.6-5.333-1.067-10.667 4.267-10.667 9.6v97.067a9.56 9.56 0 0 1-9.6 9.6 9.56 9.56 0 0 1-9.6-9.6V9.737c0-5.333-3.2-9.6-8.533-9.6-5.333-1.067-10.667 4.267-10.667 9.6V117.47c0 18.133 7.467 34.133 19.2 46.933 19.2 19.2 29.867 45.867 27.733 72.533l-21.333 230.4v7.467c2.133 23.467 24.533 40.533 48 36.267 21.333-4.267 35.2-24.533 33.067-45.867L226.844 235.87c-2.133-27.733 8.533-53.333 27.733-72.533 11.733-11.733 19.2-28.8 19.2-46.933V9.737a9.56 9.56 0 0 0-9.6-9.6z" fill="#f2f2f2"/><path d="M227.91 240.137h-40.533l-20.267 227.2v7.467c2.133 23.467 24.533 40.533 48 36.267 21.333-4.267 35.2-24.533 33.067-45.867L227.91 240.137z" fill="#40596b"/><path d="M355.91.137S310.043 18.27 290.843 155.87c-7.467 56.533 4.267 112 25.6 164.267 2.133 5.333 3.2 11.733 3.2 18.133l-12.8 137.6v6.4c2.133 18.133 18.133 32 37.333 29.867 17.067-2.133 28.8-20.267 27.733-37.333L355.91.137z" fill="#f2f2f2"/><path d="M319.644 337.204v2.133l-12.8 137.6v6.4c2.133 18.133 18.133 32 37.333 29.867 17.067-2.133 28.8-20.267 27.733-37.333l-4.267-137.6h-48v-1.067z" fill="#ff7058"/></svg>